<?xml version="1.0" encoding="utf-8"?>
<?xml-stylesheet type="text/xsl" href="rss1.xsl"?>
<rss version="2.0" xmlns:atom="http://www.w3.org/2005/Atom" xmlns:content="http://purl.org/rss/1.0/modules/content/" xmlns:dc="http://purl.org/dc/elements/1.1/" xmlns:media="http://search.yahoo.com/mrss/">
<channel>
 <title>Getty</title>
 <link>http://www.gettyimg.com/</link>
 <atom:link href="http://www.gettyimg.com/" rel="self" type="application/rss+xml" />

 
                <item>
                <title><![CDATA[【Albums (lossless)】ALAC - Avril Lavigne - Goodbye Lullaby (Special Edition) | Apple Music | Apple LAC | .M4A 16bits ／ 44.1kHz]]></title>
                <link><![CDATA[https://sharemania.us/threads/avril-lavigne-goodbye-lullaby-special-edition-apple-music-apple-lac-m4a-16bits-%EF%BC%8F-44-1khz.247719/]]></link>
                <description><![CDATA[<article>
<blockquote class="messageText SelectQuoteContainer ugc baseHtml">
<div style="text-align: center"><img src="https://i.imgur.com/li1zMsc.jpeg" class="bbCodeImage LbImage" alt="[​IMG]" data-url="https://i.imgur.com/li1zMsc.jpeg" style=""><br>
<br>
<span style="font-family: 'Book Antiqua'"><span style="font-size: 12px"><span style="color: #000000">this version contains the track "<b><i>Knockin' On Heaven's Door</i></b>"</span></span></span><br>
<br>
<span style="font-family: 'Book Antiqua'"><span style="font-size: 12px"><span style="color: #a6ff4d">
<div class="bbCodeBlock bbCodeVfcHH HiddenContent">
<div class="attribution type">Hidden Content:</div>
<blockquote>You must reply before you can see the hidden data contained here.</blockquote>
</div></span></span></span>​</div>
<div class="messageTextEndMarker">&nbsp;</div>
</blockquote>
</article>]]></description>
                <author><![CDATA[Nuric]]></author>
                </item>

                
                <item>
                <title><![CDATA[【Requests】[REQ VID] - Natalie Imbruglia - Isle Of Wight 2024]]></title>
                <link><![CDATA[https://sharemania.us/threads/natalie-imbruglia-isle-of-wight-2024.247720/]]></link>
                <description><![CDATA[<article>
<blockquote class="messageText SelectQuoteContainer ugc baseHtml">
Hi there!<br>
<br>
Does anyone have this? Thank you so much in advance!
<div class="messageTextEndMarker">&nbsp;</div>
</blockquote>
</article>]]></description>
                <author><![CDATA[leolokm]]></author>
                </item>

                
                <item>
                <title><![CDATA[【HD Live Performances】FEED - Pet Shop Boys - Live @ Isle Of Wight 2024 FEED HDTV H264 1080i MP2&amp;Dolby E-J Silver]]></title>
                <link><![CDATA[https://sharemania.us/threads/pet-shop-boys-live-isle-of-wight-2024-feed-hdtv-h264-1080i-mp2-dolby-e-j-silver.247718/]]></link>
                <description><![CDATA[<article>
<blockquote class="messageText SelectQuoteContainer ugc baseHtml">
<div style="text-align: center"><img src="https://i123.fastpic.org/big/2024/0622/e0/bad436517f8c24d4734ef8f62ee125e0.png?r=1" class="bbCodeImage LbImage" alt="[​IMG]" data-url="https://i123.fastpic.org/big/2024/0622/e0/bad436517f8c24d4734ef8f62ee125e0.png?r=1" style=""><br>
<br>
<a href="https://fastpic.org/view/123/2024/0623/_23110d313036cade22c086d552e151d5.png.html" target="_blank" class="externalLink" rel="nofollow"><img src="https://i123.fastpic.org/thumb/2024/0623/d5/_23110d313036cade22c086d552e151d5.jpeg" class="bbCodeImage LbImage" alt="[​IMG]" data-url="https://i123.fastpic.org/thumb/2024/0623/d5/_23110d313036cade22c086d552e151d5.jpeg"></a> <a href="https://fastpic.org/view/123/2024/0623/_61a89bd27d32ebc48a803fc342eb7960.png.html" target="_blank" class="externalLink" rel="nofollow"><img src="https://i123.fastpic.org/thumb/2024/0623/60/_61a89bd27d32ebc48a803fc342eb7960.jpeg" class="bbCodeImage LbImage" alt="[​IMG]" data-url="https://i123.fastpic.org/thumb/2024/0623/60/_61a89bd27d32ebc48a803fc342eb7960.jpeg"></a> <a href="https://fastpic.org/view/123/2024/0623/_510896483a1e3b018117e12fba985f5f.png.html" target="_blank" class="externalLink" rel="nofollow"><img src="https://i123.fastpic.org/thumb/2024/0623/5f/_510896483a1e3b018117e12fba985f5f.jpeg" class="bbCodeImage LbImage" alt="[​IMG]" data-url="https://i123.fastpic.org/thumb/2024/0623/5f/_510896483a1e3b018117e12fba985f5f.jpeg"></a> <a href="https://fastpic.org/view/123/2024/0623/_31482e36c95f87ac6a5706379fdc02e8.png.html" target="_blank" class="externalLink" rel="nofollow"><img src="https://i123.fastpic.org/thumb/2024/0623/e8/_31482e36c95f87ac6a5706379fdc02e8.jpeg" class="bbCodeImage LbImage" alt="[​IMG]" data-url="https://i123.fastpic.org/thumb/2024/0623/e8/_31482e36c95f87ac6a5706379fdc02e8.jpeg"></a> <a href="https://fastpic.org/view/123/2024/0623/_70501afee51a5fd0701d5b0fb956a6cb.png.html" target="_blank" class="externalLink" rel="nofollow"><img src="https://i123.fastpic.org/thumb/2024/0623/cb/_70501afee51a5fd0701d5b0fb956a6cb.jpeg" class="bbCodeImage LbImage" alt="[​IMG]" data-url="https://i123.fastpic.org/thumb/2024/0623/cb/_70501afee51a5fd0701d5b0fb956a6cb.jpeg"></a> <a href="https://fastpic.org/view/123/2024/0623/_f0a4ffd81daadbc3baa5c58a41ea8990.png.html" target="_blank" class="externalLink" rel="nofollow"><img src="https://i123.fastpic.org/thumb/2024/0623/90/_f0a4ffd81daadbc3baa5c58a41ea8990.jpeg" class="bbCodeImage LbImage" alt="[​IMG]" data-url="https://i123.fastpic.org/thumb/2024/0623/90/_f0a4ffd81daadbc3baa5c58a41ea8990.jpeg"></a><br>
<br>
​</div><br>
<div class="bbCodeBlock bbCodeCode">
<div class="type">Code:</div>
<pre>General
ID                                       : 0 (0x0)
Complete name                            : C:\Recordings\Pet Shop Boys - Live @ Isle Of Wight 2024 FEED HDTV H264 1080i MP2&amp;Dolby E-J Silver.ts
Format                                   : MPEG-TS
File size                                : 24.6 GiB
Duration                                 : 1 h 41 min
Overall bit rate mode                    : Variable
Overall bit rate                         : 34.8 Mb/s
Frame rate                               : 25.000 FPS

Video
ID                                       : 512 (0x200)
Menu ID                                  : 1 (0x1)
Format                                   : AVC
Format/Info                              : Advanced Video Codec
Format profile                           : High 4:2:2@L4
Format settings                          : CABAC / 3 Ref Frames
Format settings, CABAC                   : Yes
Format settings, Reference frames        : 3 frames
Format settings, GOP                     : M=4, N=24
Format settings, Slice count             : 6 slices per frame
Codec ID                                 : 27
Duration                                 : 1 h 41 min
Bit rate mode                            : Constant
Bit rate                                 : 30.2 Mb/s
Nominal bit rate                         : 32.1 Mb/s
Width                                    : 1 920 pixels
Height                                   : 1 080 pixels
Display aspect ratio                     : 16:9
Frame rate                               : 25.000 FPS
Color space                              : YUV
Chroma subsampling                       : 4:2:2
Bit depth                                : 10 bits
Scan type                                : MBAFF
Scan type, store method                  : Interleaved fields
Scan order                               : Top Field First
Bits/(Pixel*Frame)                       : 0.583
Stream size                              : 21.4 GiB (87%)
Color range                              : Limited
Color primaries                          : BT.709
Transfer characteristics                 : BT.709
Matrix coefficients                      : BT.709

Audio #1
ID                                       : 4112 (0x1010)
Menu ID                                  : 1 (0x1)
Format                                   : MPEG Audio
Format version                           : Version 1
Format profile                           : Layer 2
Codec ID                                 : 3
Duration                                 : 1 h 41 min
Bit rate mode                            : Constant
Bit rate                                 : 384 kb/s
Channel(s)                               : 2 channels
Sampling rate                            : 48.0 kHz
Frame rate                               : 41.667 FPS (1152 SPF)
Compression mode                         : Lossy
Stream size                              : 278 MiB (1%)
Language                                 : English
Language, more info                      : Clean effects

Audio #2
ID                                       : 4128 (0x1020)
Menu ID                                  : 1 (0x1)
Format                                   : MPEG Audio
Format version                           : Version 1
Format profile                           : Layer 2
Codec ID                                 : 3
Duration                                 : 1 h 41 min
Bit rate mode                            : Constant
Bit rate                                 : 112 kb/s
Channel(s)                               : 2 channels
Sampling rate                            : 48.0 kHz
Frame rate                               : 41.667 FPS (1152 SPF)
Compression mode                         : Lossy
Stream size                              : 81.2 MiB (0%)
Language                                 : English
Language, more info                      : Clean effects

Audio #3
ID                                       : 4144 (0x1030)-1
Menu ID                                  : 1 (0x1)
Format                                   : Dolby E
Format settings                          : Little
Muxing mode                              : SMPTE ST 302 / SMPTE ST 337
Codec ID                                 : 6
Duration                                 : 1 h 41 min
Bit rate mode                            : Constant
Bit rate                                 : 1 291 kb/s
Channel(s)                               : 6 channels
Channel layout                           : L C Ls X R LFE Rs X
Sampling rate                            : 48.0 kHz
Frame rate                               : 25.000 FPS (1920 SPF)
Bit depth                                : 20 bits
Stream size                              : 936 MiB (4%)
Title                                    : CTV OB9 SPARE                   
Language                                 : English
Language, more info                      : Clean effects

Audio #4
ID                                       : 4144 (0x1030)-2
Menu ID                                  : 1 (0x1)
Format                                   : Dolby E
Format settings                          : Little
Muxing mode                              : SMPTE ST 302 / SMPTE ST 337
Codec ID                                 : 6
Duration                                 : 1 h 41 min
Bit rate mode                            : Constant
Bit rate                                 : 505 kb/s
Channel(s)                               : 2 channels
Channel layout                           : X X X L X X X R
Sampling rate                            : 48.0 kHz
Frame rate                               : 25.000 FPS (1920 SPF)
Bit depth                                : 20 bits
Stream size                              : 366 MiB (1%)
Title                                    : BTSPOT 
Language                                 : English
Language, more info                      : Clean effects
</pre>
</div><div style="text-align: center"><br>
<div class="bbCodeBlock bbCodeVfcHH HiddenContent">
<div class="attribution type">Hidden Content:</div>
<blockquote>You must reply before you can see the hidden data contained here.</blockquote>
</div></div>
<div class="messageTextEndMarker">&nbsp;</div>
</blockquote>
</article>]]></description>
                <author><![CDATA[ilya2129]]></author>
                </item>

                </channel></rss>